<svg xmlns="http://www.w3.org/2000/svg" viewBox="0 0 23.8 23.8" xmlns:v="https://vecta.io/nano"><path d="M0 23.8h23.8l-5.5-7.3h-11V5.6L0 0z"/><linearGradient id="A" gradientUnits="userSpaceOnUse" x1="11.923" y1="23.846" x2="11.923" y2="0"><stop offset="0"/></linearGradient><path d="M0 23.8h23.8l-5.5-7.3h-11V5.6L0 0z" fill="url(#A)"/><linearGradient id="B" gradientUnits="userSpaceOnUse" x1="12.416" y1="11.431" x2=".5" y2="23.347"><stop offset="0" stop-color="#2c2018"/><stop offset="1" stop-color="#856858"/></linearGradient><path d="M.5 1v16 6.3h6.3 16L18 17H6.8V5.8z" fill="url(#B)"/><linearGradient id="C" gradientUnits="userSpaceOnUse" x1="12.79" y1="11.057" x2="0" y2="23.847"><stop offset="0" stop-color="#2e1f18"/><stop offset=".031" stop-color="#34241d"/><stop offset=".2" stop-color="#503c32"/><stop offset=".346" stop-color="#624a3e"/><stop offset=".455" stop-color="#684f43"/><stop offset=".617" stop-color="#b88c70"/><stop offset=".681" stop-color="#ba9074"/><stop offset=".749" stop-color="#c19a81"/><stop offset=".82" stop-color="#cbac97"/><stop offset=".893" stop-color="#dac5b5"/><stop offset=".967" stop-color="#ede5dc"/><stop offset="1" stop-color="#f7f6f0"/></linearGradient><path d="M0 23.8h23.8l-5.6-7.3H7.3V5.6L0 0v23.8zm6.8-18V17H18l4.8 6.3H.5V1l6.3 4.8z" fill="url(#C)"/><linearGradient id="D" gradientUnits="userSpaceOnUse" x1="12.416" y1="11.431" x2=".5" y2="23.347"><stop offset="0" stop-color="#20170e"/><stop offset=".284" stop-color="#231a10"/><stop offset=".508" stop-color="#2d2218"/><stop offset=".713" stop-color="#3e2f25"/><stop offset=".904" stop-color="#554237"/><stop offset="1" stop-color="#644e42"/></linearGradient><path d="M.5 23.3l.8-.8h19.6l-3.8-5.1H5.9V6.3L.5 2.1V1l6.3 4.8V17H18l4.8 6.3z" fill="url(#D)"/><linearGradient id="E" gradientUnits="userSpaceOnUse" x1=".901" y1="23.347" x2=".901" y2="2.106"><stop offset="0" stop-color="#c79b82"/><stop offset=".218" stop-color="#c49880"/><stop offset=".39" stop-color="#ba9079"/><stop offset=".547" stop-color="#a9836d"/><stop offset=".694" stop-color="#92705d"/><stop offset=".836" stop-color="#735747"/><stop offset=".97" stop-color="#4e392d"/><stop offset="1" stop-color="#453227"/></linearGradient><path d="M.5 23.3l.8-.8V2.7l-.8-.6z" fill="url(#E)"/><linearGradient id="F" gradientUnits="userSpaceOnUse" x1="5.126" y1="14.716" x2="1.884" y2="14.716"><stop offset="0" stop-color="#19130d"/><stop offset=".76" stop-color="#aa8164"/><stop offset="1" stop-color="#d9a480"/></linearGradient><circle cx="3.5" cy="14.7" r="1.6" fill="url(#F)"/><path d="M3 15.7s1.8-.9.9-2.3c0 0 1.9.6.7 2.2-.7.9-1.6.1-1.6.1z" opacity=".3" fill="#1d1d1b"/><linearGradient id="G" gradientUnits="userSpaceOnUse" x1="4.677" y1="13.544" x2="2.333" y2="15.888"><stop offset=".001" stop-color="#3a2a21"/><stop offset=".38" stop-color="#3c2c23"/><stop offset=".523" stop-color="#42332a"/><stop offset=".626" stop-color="#4e3f35"/><stop offset=".71" stop-color="#5e5046"/><stop offset=".782" stop-color="#73665b"/><stop offset=".847" stop-color="#8e8276"/><stop offset=".905" stop-color="#ada396"/><stop offset=".957" stop-color="#d0c7b9"/><stop offset="1" stop-color="#f3ecdd"/></linearGradient><path d="M5.2 14.7c0 .9-.7 1.7-1.7 1.7s-1.7-.7-1.7-1.7.7-1.7 1.7-1.7 1.7.8 1.7 1.7zm-2.9 0c0 .6.5 1.2 1.2 1.2s1.2-.5 1.2-1.2-.5-1.2-1.2-1.2-1.2.6-1.2 1.2z" fill="url(#G)"/><linearGradient id="H" gradientUnits="userSpaceOnUse" x1="11.195" y1="20.099" x2="7.953" y2="20.099"><stop offset="0" stop-color="#19130d"/><stop offset=".76" stop-color="#aa8164"/><stop offset="1" stop-color="#d9a480"/></linearGradient><circle cx="9.6" cy="20.1" r="1.6" fill="url(#H)"/><path d="M9 21.1s1.8-.9.9-2.3c0 0 1.9.6.7 2.2-.7.9-1.6.1-1.6.1z" opacity=".3" fill="#1d1d1b"/><linearGradient id="I" gradientUnits="userSpaceOnUse" x1="10.746" y1="18.927" x2="8.402" y2="21.271"><stop offset=".001" stop-color="#3a2a21"/><stop offset=".38" stop-color="#3c2c23"/><stop offset=".523" stop-color="#42332a"/><stop offset=".626" stop-color="#4e3f35"/><stop offset=".71" stop-color="#5e5046"/><stop offset=".782" stop-color="#73665b"/><stop offset=".847" stop-color="#8e8276"/><stop offset=".905" stop-color="#ada396"/><stop offset=".957" stop-color="#d0c7b9"/><stop offset="1" stop-color="#f3ecdd"/></linearGradient><path d="M11.2 20.1c0 .9-.7 1.7-1.7 1.7s-1.6-.8-1.6-1.7.7-1.7 1.7-1.7 1.6.8 1.6 1.7zm-2.8 0c0 .6.5 1.2 1.2 1.2s1.2-.5 1.2-1.2-.5-1.2-1.2-1.2-1.2.6-1.2 1.2z" fill="url(#I)"/></svg>