<svg xmlns="http://www.w3.org/2000/svg" viewBox="0 0 23.8 23.8" xmlns:v="https://vecta.io/nano"><path d="M23.8 23.8V0l-7.3 5.6v10.9H5.6L0 23.8z"/><linearGradient id="A" gradientUnits="userSpaceOnUse" x1="23.846" y1="11.923" x2="0" y2="11.923"><stop offset="0"/></linearGradient><path d="M23.8 23.8V0l-7.3 5.6v10.9H5.6L0 23.8z" fill="url(#A)"/><linearGradient id="B" gradientUnits="userSpaceOnUse" x1="11.43" y1="11.43" x2="23.346" y2="23.346"><stop offset="0" stop-color="#2c2018"/><stop offset="1" stop-color="#856858"/></linearGradient><path d="M1 23.3h16 6.3V17 1L17 5.8V17H5.8z" fill="url(#B)"/><linearGradient id="C" gradientUnits="userSpaceOnUse" x1="11.057" y1="11.057" x2="23.846" y2="23.847"><stop offset="0" stop-color="#2e1f18"/><stop offset=".031" stop-color="#34241d"/><stop offset=".2" stop-color="#503c32"/><stop offset=".346" stop-color="#624a3e"/><stop offset=".455" stop-color="#684f43"/><stop offset=".617" stop-color="#b88c70"/><stop offset=".681" stop-color="#ba9074"/><stop offset=".749" stop-color="#c19a81"/><stop offset=".82" stop-color="#cbac97"/><stop offset=".893" stop-color="#dac5b5"/><stop offset=".967" stop-color="#ede5dc"/><stop offset="1" stop-color="#f7f6f0"/></linearGradient><path d="M23.8 23.8V0l-7.3 5.6v10.9H5.6L0 23.8h23.8zM5.8 17H17V5.8L23.3 1v22.3H1L5.8 17z" fill="url(#C)"/><linearGradient id="D" gradientUnits="userSpaceOnUse" x1="11.43" y1="11.43" x2="23.346" y2="23.346"><stop offset="0" stop-color="#20170e"/><stop offset=".284" stop-color="#231a10"/><stop offset=".508" stop-color="#2d2218"/><stop offset=".713" stop-color="#3e2f25"/><stop offset=".904" stop-color="#554237"/><stop offset="1" stop-color="#644e42"/></linearGradient><path d="M23.3 23.3l-.8-.8V2.9l-5.1 3.8V18H6.3l-4.2 5.3H1L5.8 17H17V5.8L23.3 1z" fill="url(#D)"/><linearGradient id="E" gradientUnits="userSpaceOnUse" x1="23.346" y1="22.945" x2="2.105" y2="22.945"><stop offset="0" stop-color="#c79b82"/><stop offset=".218" stop-color="#c49880"/><stop offset=".39" stop-color="#ba9079"/><stop offset=".547" stop-color="#a9836d"/><stop offset=".694" stop-color="#92705d"/><stop offset=".836" stop-color="#735747"/><stop offset=".97" stop-color="#4e392d"/><stop offset="1" stop-color="#453227"/></linearGradient><path d="M23.3 23.3l-.8-.8H2.7l-.6.8z" fill="url(#E)"/><linearGradient id="F" gradientUnits="userSpaceOnUse" x1="14.716" y1="18.72" x2="14.716" y2="21.962"><stop offset="0" stop-color="#19130d"/><stop offset=".76" stop-color="#aa8164"/><stop offset="1" stop-color="#d9a480"/></linearGradient><circle cx="14.7" cy="20.3" r="1.6" fill="url(#F)"/><path d="M15.7 20.9s-.9-1.8-2.3-.9c0 0 .6-1.9 2.2-.7.9.7.1 1.6.1 1.6z" opacity=".3" fill="#1d1d1b"/><linearGradient id="G" gradientUnits="userSpaceOnUse" x1="13.544" y1="19.169" x2="15.888" y2="21.513"><stop offset=".001" stop-color="#3a2a21"/><stop offset=".38" stop-color="#3c2c23"/><stop offset=".523" stop-color="#42332a"/><stop offset=".626" stop-color="#4e3f35"/><stop offset=".71" stop-color="#5e5046"/><stop offset=".782" stop-color="#73665b"/><stop offset=".847" stop-color="#8e8276"/><stop offset=".905" stop-color="#ada396"/><stop offset=".957" stop-color="#d0c7b9"/><stop offset="1" stop-color="#f3ecdd"/></linearGradient><path d="M14.7 18.7c.9 0 1.7.7 1.7 1.7s-.8 1.6-1.7 1.6-1.7-.7-1.7-1.7.8-1.6 1.7-1.6zm0 2.8c.6 0 1.2-.5 1.2-1.2s-.5-1.2-1.2-1.2-1.2.5-1.2 1.2.6 1.2 1.2 1.2z" fill="url(#G)"/><linearGradient id="H" gradientUnits="userSpaceOnUse" x1="20.099" y1="12.651" x2="20.099" y2="15.893"><stop offset="0" stop-color="#19130d"/><stop offset=".76" stop-color="#aa8164"/><stop offset="1" stop-color="#d9a480"/></linearGradient><circle cx="20.1" cy="14.3" r="1.6" fill="url(#H)"/><path d="M21.1 14.8s-.9-1.8-2.3-.9c0 0 .6-1.9 2.2-.7.9.7.1 1.6.1 1.6z" opacity=".3" fill="#1d1d1b"/><linearGradient id="I" gradientUnits="userSpaceOnUse" x1="18.927" y1="13.1" x2="21.271" y2="15.444"><stop offset=".001" stop-color="#3a2a21"/><stop offset=".38" stop-color="#3c2c23"/><stop offset=".523" stop-color="#42332a"/><stop offset=".626" stop-color="#4e3f35"/><stop offset=".71" stop-color="#5e5046"/><stop offset=".782" stop-color="#73665b"/><stop offset=".847" stop-color="#8e8276"/><stop offset=".905" stop-color="#ada396"/><stop offset=".957" stop-color="#d0c7b9"/><stop offset="1" stop-color="#f3ecdd"/></linearGradient><path d="M20.1 12.6c.9 0 1.7.7 1.7 1.7s-.7 1.7-1.7 1.7-1.7-.7-1.7-1.7.8-1.7 1.7-1.7zm0 2.8c.6 0 1.2-.5 1.2-1.2s-.5-1.2-1.2-1.2-1.2.5-1.2 1.2.6 1.2 1.2 1.2z" fill="url(#I)"/></svg>