<svg xmlns="http://www.w3.org/2000/svg" viewBox="0 0 23.8 23.8" xmlns:v="https://vecta.io/nano"><path d="M0 0v23.8l7.3-5.5v-11h11L23.8 0z"/><linearGradient id="A" gradientUnits="userSpaceOnUse" x1="0" y1="11.923" x2="23.846" y2="11.923"><stop offset="0"/></linearGradient><path d="M0 0v23.8l7.3-5.5v-11h11L23.8 0z" fill="url(#A)"/><linearGradient id="B" gradientUnits="userSpaceOnUse" x1="12.416" y1="12.416" x2=".5" y2=".5"><stop offset="0" stop-color="#2c2018"/><stop offset="1" stop-color="#856858"/></linearGradient><path d="M22.8.5h-16H.5v6.3 16L6.8 18V6.8H18z" fill="url(#B)"/><linearGradient id="C" gradientUnits="userSpaceOnUse" x1="12.79" y1="12.79" x2="0" y2="0"><stop offset="0" stop-color="#2e1f18"/><stop offset=".031" stop-color="#34241d"/><stop offset=".2" stop-color="#503c32"/><stop offset=".346" stop-color="#624a3e"/><stop offset=".455" stop-color="#684f43"/><stop offset=".617" stop-color="#b88c70"/><stop offset=".681" stop-color="#ba9074"/><stop offset=".749" stop-color="#c19a81"/><stop offset=".82" stop-color="#cbac97"/><stop offset=".893" stop-color="#dac5b5"/><stop offset=".967" stop-color="#ede5dc"/><stop offset="1" stop-color="#f7f6f0"/></linearGradient><path d="M0 0v23.8l7.3-5.6V7.3h10.9L23.8 0H0zm18 6.8H6.8V18L.5 22.8V.5h22.3L18 6.8z" fill="url(#C)"/><linearGradient id="D" gradientUnits="userSpaceOnUse" x1="12.416" y1="12.416" x2=".5" y2=".5"><stop offset="0" stop-color="#20170e"/><stop offset=".284" stop-color="#231a10"/><stop offset=".508" stop-color="#2d2218"/><stop offset=".713" stop-color="#3e2f25"/><stop offset=".904" stop-color="#554237"/><stop offset="1" stop-color="#644e42"/></linearGradient><path d="M.5.5l.8.8v19.6l5.1-3.8V5.9h11.1L21.7.5h1.1L18 6.8H6.8V18L.5 22.8z" fill="url(#D)"/><linearGradient id="E" gradientUnits="userSpaceOnUse" x1=".5" y1=".901" x2="21.741" y2=".901"><stop offset="0" stop-color="#c79b82"/><stop offset=".218" stop-color="#c49880"/><stop offset=".39" stop-color="#ba9079"/><stop offset=".547" stop-color="#a9836d"/><stop offset=".694" stop-color="#92705d"/><stop offset=".836" stop-color="#735747"/><stop offset=".97" stop-color="#4e392d"/><stop offset="1" stop-color="#453227"/></linearGradient><path d="M.5.5l.8.8h19.8l.6-.8z" fill="url(#E)"/><linearGradient id="F" gradientUnits="userSpaceOnUse" x1="9.131" y1="5.127" x2="9.131" y2="1.884"><stop offset="0" stop-color="#19130d"/><stop offset=".76" stop-color="#aa8164"/><stop offset="1" stop-color="#d9a480"/></linearGradient><circle cx="9.1" cy="3.5" r="1.6" fill="url(#F)"/><path d="M8.1 3s.9 1.8 2.3.9c0 0-.6 1.9-2.2.7-.8-.7-.1-1.6-.1-1.6z" opacity=".3" fill="#1d1d1b"/><linearGradient id="G" gradientUnits="userSpaceOnUse" x1="10.303" y1="4.678" x2="7.959" y2="2.334"><stop offset=".001" stop-color="#3a2a21"/><stop offset=".38" stop-color="#3c2c23"/><stop offset=".523" stop-color="#42332a"/><stop offset=".626" stop-color="#4e3f35"/><stop offset=".71" stop-color="#5e5046"/><stop offset=".782" stop-color="#73665b"/><stop offset=".847" stop-color="#8e8276"/><stop offset=".905" stop-color="#ada396"/><stop offset=".957" stop-color="#d0c7b9"/><stop offset="1" stop-color="#f3ecdd"/></linearGradient><path d="M9.1 5.2c-.9 0-1.7-.7-1.7-1.7s.7-1.7 1.7-1.7 1.7.7 1.7 1.7-.8 1.7-1.7 1.7zm0-2.9c-.6 0-1.1.6-1.1 1.2s.5 1.2 1.2 1.2 1.2-.5 1.2-1.2-.6-1.2-1.3-1.2z" fill="url(#G)"/><linearGradient id="H" gradientUnits="userSpaceOnUse" x1="3.748" y1="11.196" x2="3.748" y2="7.953"><stop offset="0" stop-color="#19130d"/><stop offset=".76" stop-color="#aa8164"/><stop offset="1" stop-color="#d9a480"/></linearGradient><circle cx="3.7" cy="9.6" r="1.6" fill="url(#H)"/><path d="M2.7 9s.9 1.8 2.3.9c0 0-.6 1.9-2.2.7C2 9.9 2.7 9 2.7 9z" opacity=".3" fill="#1d1d1b"/><linearGradient id="I" gradientUnits="userSpaceOnUse" x1="4.92" y1="10.746" x2="2.576" y2="8.402"><stop offset=".001" stop-color="#3a2a21"/><stop offset=".38" stop-color="#3c2c23"/><stop offset=".523" stop-color="#42332a"/><stop offset=".626" stop-color="#4e3f35"/><stop offset=".71" stop-color="#5e5046"/><stop offset=".782" stop-color="#73665b"/><stop offset=".847" stop-color="#8e8276"/><stop offset=".905" stop-color="#ada396"/><stop offset=".957" stop-color="#d0c7b9"/><stop offset="1" stop-color="#f3ecdd"/></linearGradient><path d="M3.7 11.2c-.9 0-1.7-.7-1.7-1.7s.7-1.7 1.7-1.7 1.7.7 1.7 1.7-.7 1.7-1.7 1.7zm0-2.8c-.6 0-1.2.5-1.2 1.2s.5 1.2 1.2 1.2 1.2-.5 1.2-1.2-.5-1.2-1.2-1.2z" fill="url(#I)"/></svg>