<svg xmlns="http://www.w3.org/2000/svg" viewBox="0 0 23.8 23.8" xmlns:v="https://vecta.io/nano"><path d="M23.8 0H0l5.6 7.3h10.9v11l7.3 5.5z"/><linearGradient id="A" gradientUnits="userSpaceOnUse" x1="11.923" y1="0" x2="11.923" y2="23.846"><stop offset="0"/></linearGradient><path d="M23.8 0H0l5.6 7.3h10.9v11l7.3 5.5z" fill="url(#A)"/><linearGradient id="B" gradientUnits="userSpaceOnUse" x1="11.43" y1="12.416" x2="23.346" y2=".5"><stop offset="0" stop-color="#2c2018"/><stop offset="1" stop-color="#856858"/></linearGradient><path d="M23.3 22.8v-16V.5H17 1l4.8 6.3H17V18z" fill="url(#B)"/><linearGradient id="C" gradientUnits="userSpaceOnUse" x1="11.057" y1="12.79" x2="23.846" y2="0"><stop offset="0" stop-color="#2e1f18"/><stop offset=".031" stop-color="#34241d"/><stop offset=".2" stop-color="#503c32"/><stop offset=".346" stop-color="#624a3e"/><stop offset=".455" stop-color="#684f43"/><stop offset=".617" stop-color="#b88c70"/><stop offset=".681" stop-color="#ba9074"/><stop offset=".749" stop-color="#c19a81"/><stop offset=".82" stop-color="#cbac97"/><stop offset=".893" stop-color="#dac5b5"/><stop offset=".967" stop-color="#ede5dc"/><stop offset="1" stop-color="#f7f6f0"/></linearGradient><path d="M23.8 0H0l5.6 7.3h10.9v10.9l7.3 5.6V0zM17 18V6.8H5.8L1 .5h22.3v22.3L17 18z" fill="url(#C)"/><linearGradient id="D" gradientUnits="userSpaceOnUse" x1="11.43" y1="12.416" x2="23.346" y2=".5"><stop offset="0" stop-color="#20170e"/><stop offset=".284" stop-color="#231a10"/><stop offset=".508" stop-color="#2d2218"/><stop offset=".713" stop-color="#3e2f25"/><stop offset=".904" stop-color="#554237"/><stop offset="1" stop-color="#644e42"/></linearGradient><path d="M23.3.5l-.8.8H2.9l3.8 5.1H18v11.1l5.3 4.2v1.1L17 18V6.8H5.8L1 .5z" fill="url(#D)"/><linearGradient id="E" gradientUnits="userSpaceOnUse" x1="22.945" y1=".5" x2="22.945" y2="21.741"><stop offset="0" stop-color="#c79b82"/><stop offset=".218" stop-color="#c49880"/><stop offset=".39" stop-color="#ba9079"/><stop offset=".547" stop-color="#a9836d"/><stop offset=".694" stop-color="#92705d"/><stop offset=".836" stop-color="#735747"/><stop offset=".97" stop-color="#4e392d"/><stop offset="1" stop-color="#453227"/></linearGradient><path d="M23.3.5l-.8.8v19.8l.8.6z" fill="url(#E)"/><linearGradient id="F" gradientUnits="userSpaceOnUse" x1="18.72" y1="9.131" x2="21.962" y2="9.131"><stop offset="0" stop-color="#19130d"/><stop offset=".76" stop-color="#aa8164"/><stop offset="1" stop-color="#d9a480"/></linearGradient><circle cx="20.3" cy="9.1" r="1.6" fill="url(#F)"/><path d="M20.9 8.1s-1.8.9-.9 2.3c0 0-1.9-.6-.7-2.2.7-.8 1.6-.1 1.6-.1z" opacity=".3" fill="#1d1d1b"/><linearGradient id="G" gradientUnits="userSpaceOnUse" x1="19.169" y1="10.303" x2="21.513" y2="7.959"><stop offset=".001" stop-color="#3a2a21"/><stop offset=".38" stop-color="#3c2c23"/><stop offset=".523" stop-color="#42332a"/><stop offset=".626" stop-color="#4e3f35"/><stop offset=".71" stop-color="#5e5046"/><stop offset=".782" stop-color="#73665b"/><stop offset=".847" stop-color="#8e8276"/><stop offset=".905" stop-color="#ada396"/><stop offset=".957" stop-color="#d0c7b9"/><stop offset="1" stop-color="#f3ecdd"/></linearGradient><path d="M18.7 9.1c0-.9.7-1.7 1.7-1.7s1.6.8 1.6 1.7-.7 1.7-1.7 1.7-1.6-.8-1.6-1.7zm2.8 0c0-.6-.5-1.1-1.2-1.1s-1.2.5-1.2 1.2.5 1.2 1.2 1.2 1.2-.6 1.2-1.3z" fill="url(#G)"/><linearGradient id="H" gradientUnits="userSpaceOnUse" x1="12.651" y1="3.748" x2="15.893" y2="3.748"><stop offset="0" stop-color="#19130d"/><stop offset=".76" stop-color="#aa8164"/><stop offset="1" stop-color="#d9a480"/></linearGradient><circle cx="14.3" cy="3.7" r="1.6" fill="url(#H)"/><path d="M14.8 2.7s-1.8.9-.9 2.3c0 0-1.9-.6-.7-2.2.7-.8 1.6-.1 1.6-.1z" opacity=".3" fill="#1d1d1b"/><linearGradient id="I" gradientUnits="userSpaceOnUse" x1="13.1" y1="4.92" x2="15.444" y2="2.576"><stop offset=".001" stop-color="#3a2a21"/><stop offset=".38" stop-color="#3c2c23"/><stop offset=".523" stop-color="#42332a"/><stop offset=".626" stop-color="#4e3f35"/><stop offset=".71" stop-color="#5e5046"/><stop offset=".782" stop-color="#73665b"/><stop offset=".847" stop-color="#8e8276"/><stop offset=".905" stop-color="#ada396"/><stop offset=".957" stop-color="#d0c7b9"/><stop offset="1" stop-color="#f3ecdd"/></linearGradient><path d="M12.6 3.7c0-.9.7-1.7 1.7-1.7s1.7.7 1.7 1.7-.7 1.7-1.7 1.7-1.7-.7-1.7-1.7zm2.8 0c0-.6-.5-1.2-1.2-1.2S13 3 13 3.7s.5 1.2 1.2 1.2 1.2-.5 1.2-1.2z" fill="url(#I)"/></svg>