<svg xmlns="http://www.w3.org/2000/svg" viewBox="0 0 33.7 11.9" xmlns:v="https://vecta.io/nano"><path d="M16.8 11.9L33.7.3h-8.8l-8 5.4L9.3.3 0 .1l16.8 11.8z"/><linearGradient id="A" gradientUnits="userSpaceOnUse" x1="16.071" y1="-11.411" x2="16.071" y2="12.538" gradientTransform="matrix(0.7071 -0.7071 -0.7071 -0.7071 5.8801 11.9957)"><stop offset="0"/></linearGradient><path d="M16.8 11.9L33.7.3 24 1.5l-7.2 4.2L9.6.5 0 .1l16.8 11.8z" fill="url(#A)"/><linearGradient id="B" gradientUnits="userSpaceOnUse" x1="16.224" y1=".74" x2="8.282" y2="-7.203" gradientTransform="matrix(0.7071 -0.7071 -0.7071 -0.7071 5.8801 11.9957)"><stop offset="0" stop-color="#2c2018"/><stop offset="1" stop-color="#856858"/></linearGradient><path d="M8.9 0L1.1.5l10.7 6.9 5.1 3.8 5.2-4L32.6.4 24.7 0" fill="url(#B)"/><linearGradient id="C" gradientUnits="userSpaceOnUse" x1="33.702" y1="5.963" x2="-.062" y2="5.963"><stop offset="0" stop-color="#2e1f18"/><stop offset=".031" stop-color="#34241d"/><stop offset=".2" stop-color="#503c32"/><stop offset=".346" stop-color="#624a3e"/><stop offset=".455" stop-color="#684f43"/><stop offset=".617" stop-color="#b88c70"/><stop offset=".681" stop-color="#ba9074"/><stop offset=".749" stop-color="#c19a81"/><stop offset=".82" stop-color="#cbac97"/><stop offset=".893" stop-color="#dac5b5"/><stop offset=".967" stop-color="#ede5dc"/><stop offset="1" stop-color="#f7f6f0"/></linearGradient><path d="M8.9 0L0 .1l16.8 11.8L33.7.3 24.8.1m-.1.4h7.9L16.8 11.2 1.1.5H9" fill="url(#C)"/><linearGradient id="D" gradientUnits="userSpaceOnUse" x1="15.397" y1=".863" x2="14.596" y2=".061" gradientTransform="matrix(0.7071 -0.7071 -0.7071 -0.7071 5.8801 11.9957)"><stop offset="0" stop-color="#20170e"/><stop offset=".284" stop-color="#231a10"/><stop offset=".508" stop-color="#2d2218"/><stop offset=".713" stop-color="#3e2f25"/><stop offset=".904" stop-color="#554237"/><stop offset="1" stop-color="#644e42"/></linearGradient><path d="M31 1.6L2.2 1.2 1.1.5l30.2.1" fill="url(#D)"/><linearGradient id="E" gradientUnits="userSpaceOnUse" x1="21.348" y1="-5.159" x2="13.793" y2="-12.714" gradientTransform="matrix(0.7071 -0.7071 -0.7071 -0.7071 5.8801 11.9957)"><stop offset="0" stop-color="#20170e"/><stop offset=".284" stop-color="#231a10"/><stop offset=".508" stop-color="#2d2218"/><stop offset=".713" stop-color="#3e2f25"/><stop offset=".904" stop-color="#554237"/><stop offset="1" stop-color="#644e42"/></linearGradient><path d="M24.7.5l7.7.1-15.6 10.6v-1.1l13.9-8.8-6.3-.1" fill="url(#E)"/><linearGradient id="F" gradientUnits="userSpaceOnUse" x1="7.047" y1="-7.231" x2="7.047" y2="10.223" gradientTransform="matrix(0.7071 -0.7071 -0.7071 -0.7071 5.8801 11.9957)"><stop offset="0" stop-color="#c79b82"/><stop offset=".218" stop-color="#c49880"/><stop offset=".39" stop-color="#ba9079"/><stop offset=".547" stop-color="#a9836d"/><stop offset=".694" stop-color="#92705d"/><stop offset=".836" stop-color="#735747"/><stop offset=".97" stop-color="#4e392d"/><stop offset="1" stop-color="#453227"/></linearGradient><path d="M16.8 11.2v-1.1l-14-9-.6.1 14.6 10z" fill="url(#F)"/><linearGradient id="G" gradientUnits="userSpaceOnUse" x1="14.215" y1="-2.914" x2="10.973" y2="-2.914" gradientTransform="matrix(0.7071 -0.7071 -0.7071 -0.7071 5.8801 11.9957)"><stop offset="0" stop-color="#19130d"/><stop offset=".76" stop-color="#aa8164"/><stop offset="1" stop-color="#d9a480"/></linearGradient><circle cx="16.8" cy="5.2" r="1.6" fill="url(#G)"/><path d="M17.2 6.2s.6-1.9-1-2.3C16.2 4 18 3 18.3 5c.1 1.1-1.1 1.2-1.1 1.2z" opacity=".3" fill="#1d1d1b"/><linearGradient id="H" gradientUnits="userSpaceOnUse" x1="18.492" y1="5.168" x2="15.177" y2="5.168"><stop offset=".001" stop-color="#3a2a21"/><stop offset=".38" stop-color="#3c2c23"/><stop offset=".523" stop-color="#42332a"/><stop offset=".626" stop-color="#4e3f35"/><stop offset=".71" stop-color="#5e5046"/><stop offset=".782" stop-color="#73665b"/><stop offset=".847" stop-color="#8e8276"/><stop offset=".905" stop-color="#ada396"/><stop offset=".957" stop-color="#d0c7b9"/><stop offset="1" stop-color="#f3ecdd"/></linearGradient><path d="M18 4c.6.6.7 1.7 0 2.4a1.63 1.63 0 0 1-2.4 0 1.63 1.63 0 0 1 0-2.4c.7-.7 1.8-.7 2.4 0zm-2 2c.4.4 1.2.5 1.7 0s.5-1.2 0-1.7-1.2-.5-1.7 0-.4 1.3 0 1.7z" fill="url(#H)"/></svg>